<svg width="16" height="17" viewBox="0 0 16 17" fill="none" xmlns="http://www.w3.org/2000/svg">
<path d="M16 3V13C16.0018 13.6372 15.8007 14.2584 15.4257 14.7736C15.0508 15.2888 14.5216 15.6713 13.9148 15.8656C13.3079 16.0599 12.655 16.0559 12.0505 15.8542C11.4461 15.6525 10.9216 15.2637 10.553 14.7439C10.1844 14.2242 9.9908 13.6006 10.0004 12.9635C10.0099 12.3263 10.2221 11.7088 10.6061 11.2004C10.9901 10.6919 11.5261 10.3189 12.1363 10.1355C12.7465 9.95201 13.3993 9.96761 14 10.18V3C14 2.73478 13.8946 2.48043 13.7071 2.29289C13.5196 2.10536 13.2652 2 13 2H6V11C6.00179 11.6372 5.80066 12.2584 5.42574 12.7736C5.05083 13.2888 4.5216 13.6713 3.91476 13.8656C3.30791 14.0599 2.65497 14.0559 2.05054 13.8542C1.4461 13.6525 0.921578 13.2637 0.552966 12.7439C0.184353 12.2242 -0.00919979 11.6006 0.000352571 10.9635C0.00990493 10.3263 0.222067 9.70881 0.606095 9.20035C0.990124 8.69189 1.52607 8.31892 2.13628 8.13546C2.74649 7.95201 3.39926 7.96761 4 8.18V0H13C13.7957 0 14.5587 0.316071 15.1213 0.87868C15.6839 1.44129 16 2.20435 16 3V3Z" fill="#FFFEFE"/>
</svg>
