<svg width="1" height="1" viewBox="0 0 1 1" fill="none" xmlns="http://www.w3.org/2000/svg">
<path d="M0.252129 0.140692C0.255981 0.142403 0.25666 0.143301 0.257707 0.144184C0.275457 0.161481 0.293754 0.178184 0.312598 0.194301C0.312598 0.194301 0.305988 0.20045 0.325027 0.189434C0.354973 0.172356 0.387168 0.159598 0.42066 0.151528L0.422043 0.151208C0.424098 0.125739 0.425277 0.1002 0.425606 0.0746451C0.425606 0.0746451 0.428121 0.060856 0.442981 0.058817C0.448996 0.0579966 0.455027 0.0572935 0.461067 0.0567154C0.495942 0.0533795 0.531192 0.0542545 0.565918 0.0590982C0.565918 0.0590982 0.580152 0.0611998 0.581285 0.0746451C0.581606 0.0994888 0.582731 0.124192 0.58466 0.148887C0.58466 0.148887 0.575645 0.148559 0.596895 0.154239C0.630215 0.163356 0.662051 0.177153 0.691309 0.195059L0.692527 0.195809C0.711981 0.179247 0.730871 0.16202 0.749184 0.144184C0.749184 0.144184 0.759801 0.134575 0.783801 0.15402C0.811035 0.17609 0.835668 0.201419 0.856942 0.229184C0.861653 0.235333 0.866457 0.245747 0.859262 0.254262C0.841918 0.272067 0.825246 0.290333 0.809145 0.309153C0.809145 0.309153 0.803004 0.302551 0.81402 0.32159C0.831106 0.351536 0.84384 0.383669 0.851918 0.417215L0.852246 0.418606C0.877715 0.420653 0.903246 0.421833 0.928809 0.422169C0.928809 0.422169 0.942262 0.421153 0.94516 0.443559C0.949949 0.4817 0.949942 0.520411 0.944902 0.558465C0.943879 0.566184 0.939926 0.576903 0.928809 0.57784C0.925129 0.577887 0.921449 0.57795 0.91777 0.578028C0.89666 0.578512 0.875582 0.579575 0.854559 0.581215C0.854559 0.581215 0.854879 0.572208 0.849215 0.59345C0.840113 0.626684 0.826402 0.658434 0.808395 0.687872L0.807645 0.689083C0.824199 0.708544 0.841418 0.727426 0.859262 0.745739C0.859262 0.745739 0.868879 0.756356 0.849426 0.780364C0.826488 0.808669 0.800309 0.833942 0.771043 0.85595C0.754996 0.868012 0.737887 0.844544 0.719098 0.827512C0.708231 0.817669 0.692527 0.8042 0.692527 0.8042C0.690871 0.805223 0.689215 0.806231 0.687551 0.807239C0.655973 0.826028 0.621871 0.839895 0.586231 0.848473L0.584848 0.848801C0.582793 0.87427 0.581613 0.899809 0.581285 0.925364C0.581285 0.925364 0.57877 0.939153 0.56391 0.941192C0.557895 0.942012 0.551863 0.942715 0.545824 0.943294C0.510949 0.946629 0.475699 0.945754 0.440973 0.940911C0.440973 0.940911 0.426738 0.938809 0.425606 0.925364C0.425559 0.921684 0.425496 0.918012 0.425426 0.914333C0.424934 0.893223 0.423879 0.872145 0.422231 0.851114C0.422231 0.851114 0.431254 0.851442 0.409996 0.84577C0.376684 0.836661 0.344965 0.822934 0.315582 0.80495L0.314363 0.8042C0.29491 0.820762 0.27602 0.837981 0.257707 0.855817C0.257707 0.855817 0.246176 0.863794 0.234231 0.854723C0.201567 0.829934 0.172301 0.800434 0.147504 0.767598C0.147504 0.767598 0.138918 0.756051 0.147629 0.745739C0.164973 0.727934 0.181645 0.709676 0.197746 0.690848C0.197746 0.690848 0.203887 0.697458 0.192871 0.678419C0.175809 0.648512 0.163051 0.616278 0.154973 0.582794L0.154645 0.581403C0.129176 0.579348 0.103637 0.578176 0.0780822 0.57784C0.0780822 0.57784 0.0637775 0.577129 0.0605587 0.546403C0.0567541 0.510129 0.0573947 0.473801 0.0625353 0.437528C0.0653322 0.417786 0.0939806 0.422161 0.119371 0.420911C0.13402 0.420184 0.154645 0.418606 0.154645 0.418606C0.15509 0.416715 0.155551 0.414825 0.15602 0.412942C0.165043 0.377387 0.179356 0.343403 0.198496 0.312137L0.199246 0.310926C0.182692 0.291465 0.165473 0.272575 0.147629 0.254262C0.147629 0.254262 0.13966 0.242739 0.148723 0.230794C0.173098 0.198669 0.20202 0.169848 0.234231 0.145278C0.234231 0.145278 0.240324 0.137333 0.252129 0.140692V0.140692ZM0.501567 0.0859498C0.487168 0.0860435 0.47277 0.0868638 0.458434 0.0883951L0.456613 0.0885982C0.45652 0.092567 0.456402 0.0965357 0.45627 0.100504C0.455473 0.122848 0.457004 0.14577 0.451824 0.167637C0.44859 0.181294 0.425629 0.181973 0.408512 0.187169C0.377793 0.196489 0.348582 0.210419 0.321777 0.228208C0.321777 0.228208 0.312637 0.234028 0.303129 0.227184C0.283606 0.210903 0.264559 0.19395 0.246074 0.176387L0.245652 0.175981C0.222184 0.194731 0.200738 0.215981 0.181746 0.239317L0.179426 0.242208C0.197645 0.261286 0.218152 0.279169 0.231926 0.301489C0.239293 0.313434 0.223582 0.330067 0.215106 0.345926C0.199996 0.374208 0.189168 0.404747 0.182793 0.43627C0.182793 0.43627 0.180457 0.446856 0.168887 0.448739C0.143465 0.451044 0.118059 0.452512 0.0926291 0.453161L0.0920431 0.453169C0.0886994 0.483028 0.0885666 0.513231 0.0916369 0.543145L0.0920431 0.546833C0.11841 0.547442 0.145567 0.545583 0.171082 0.551629C0.18441 0.554786 0.185285 0.57702 0.190035 0.59302C0.199348 0.624395 0.213488 0.654325 0.231645 0.681669C0.231645 0.681669 0.237473 0.690809 0.230629 0.700317C0.214324 0.719872 0.197395 0.738887 0.179824 0.757372L0.179426 0.757794C0.198168 0.781262 0.219426 0.802708 0.242762 0.821708L0.245652 0.824028C0.264731 0.805809 0.282621 0.785286 0.304934 0.77152C0.316879 0.764153 0.333543 0.779887 0.349371 0.78834C0.377645 0.803458 0.408184 0.814278 0.439715 0.820653C0.439715 0.820653 0.450293 0.822997 0.452176 0.834559C0.454473 0.859879 0.455949 0.885333 0.456598 0.910825L0.456613 0.911411C0.486465 0.914739 0.51666 0.914879 0.54659 0.911809L0.550277 0.911411C0.550887 0.885036 0.54902 0.857864 0.555067 0.832364C0.558309 0.818708 0.581215 0.818044 0.598379 0.81284C0.629098 0.803512 0.658317 0.78959 0.685113 0.771801C0.685113 0.771801 0.694254 0.765973 0.703762 0.772817C0.723371 0.789169 0.742371 0.80609 0.760817 0.823622L0.761238 0.824028C0.784738 0.805247 0.806192 0.783981 0.825145 0.760684L0.827465 0.757794C0.809246 0.738723 0.788738 0.72084 0.774965 0.69852C0.767598 0.686575 0.783301 0.669942 0.791785 0.654075C0.806895 0.625801 0.817715 0.595262 0.824098 0.563731C0.824098 0.563731 0.826442 0.553153 0.838004 0.55127C0.863317 0.548973 0.88877 0.547497 0.914262 0.546848L0.914848 0.546833C0.918176 0.516973 0.918317 0.486778 0.915254 0.456856L0.914848 0.453169C0.888481 0.452567 0.861317 0.454426 0.835809 0.448379C0.821762 0.445051 0.821168 0.420817 0.815692 0.403145C0.811738 0.390395 0.806996 0.377879 0.801512 0.3657C0.79409 0.349239 0.785262 0.333419 0.775246 0.31834C0.775246 0.31834 0.769418 0.3092 0.776262 0.299684C0.792567 0.280137 0.809496 0.261122 0.827067 0.242637L0.827465 0.242208C0.808715 0.218739 0.787457 0.197294 0.764129 0.178301L0.761238 0.175981C0.74216 0.1942 0.72427 0.214723 0.701957 0.228481C0.690309 0.235669 0.674035 0.220614 0.659285 0.212614C0.646957 0.205934 0.634199 0.200044 0.621113 0.194989C0.603645 0.188254 0.585582 0.183075 0.567176 0.179356C0.567176 0.179356 0.556598 0.177012 0.554715 0.16545C0.554371 0.1617 0.554043 0.157942 0.553731 0.154184C0.551988 0.132567 0.55084 0.110887 0.550293 0.0891842C0.550293 0.0891842 0.526121 0.0858951 0.501567 0.0859498V0.0859498ZM0.504653 0.312504C0.590402 0.313325 0.671207 0.379161 0.68759 0.464544C0.703606 0.548028 0.654957 0.639504 0.57641 0.672754C0.489043 0.709731 0.376184 0.667817 0.334457 0.581278C0.281121 0.470669 0.363403 0.315567 0.499824 0.312536C0.501434 0.312512 0.503043 0.312504 0.504653 0.312504V0.312504ZM0.502434 0.343754C0.414098 0.344598 0.336082 0.431551 0.348715 0.521864C0.359059 0.595825 0.429254 0.656723 0.504457 0.656247C0.595754 0.655669 0.675559 0.561426 0.65652 0.46852C0.642238 0.398809 0.575996 0.34352 0.502434 0.343754Z" fill="white"/>
</svg>
