<svg width="2857" height="776" viewBox="0 0 2857 776" fill="none" xmlns="http://www.w3.org/2000/svg">
<path d="M552.73 332.135H311.557C305.352 332.135 300.307 337.18 300.307 343.432V461.319C300.307 467.571 305.352 472.591 311.557 472.591H405.666V619.133C405.666 619.133 384.521 626.19 326.17 626.19C257.256 626.19 161.014 600.946 161.014 389.395C161.014 177.753 261.211 149.904 355.321 149.904C436.786 149.904 471.835 164.208 494.19 171.145C501.2 173.348 507.594 166.314 507.594 160.04L534.543 46.13C534.543 43.218 533.502 39.713 530.281 37.345C521.186 30.952 465.865 0 326.168 0C165.133 0 0 68.487 0 397.757C0 726.979 189.051 776 348.381 776C480.264 776 560.402 719.686 560.402 719.686C563.67 717.885 564.002 713.291 564.002 711.207V343.432C563.955 337.227 558.887 332.135 552.73 332.135ZM1772.38 28.134H1636.69C1630.43 28.134 1625.42 33.178 1625.42 39.43V301.823H1413.8V39.43C1413.8 33.178 1408.73 28.134 1402.62 28.134H1266.78C1260.67 28.134 1255.7 33.178 1255.7 39.43V749.903C1255.7 756.202 1260.72 761.223 1266.78 761.223H1402.62C1408.82 761.223 1413.8 756.155 1413.8 749.903V446.067H1625.42L1624.94 749.95C1624.94 756.25 1629.96 761.222 1636.02 761.222H1771.91C1778.16 761.222 1783.04 756.154 1783.04 749.95L1783.51 39.429C1783.61 33.178 1778.54 28.134 1772.38 28.134ZM714.949 44.237C666.592 44.237 627.375 83.809 627.375 132.64C627.375 181.495 666.592 221.068 714.949 221.068C763.306 221.068 802.476 181.496 802.476 132.64C802.477 83.81 763.307 44.237 714.949 44.237ZM792.861 272.126C792.861 265.921 787.841 260.782 781.73 260.782H646.32C639.972 260.782 634.574 267.176 634.574 273.452C634.574 273.452 634.574 668.106 634.574 743.319C634.574 757.054 643.146 761.222 654.277 761.222C654.277 761.222 711.965 761.222 776.236 761.222C789.547 761.222 793.05 754.686 793.05 743.034C792.956 717.837 792.956 619.226 792.956 600.092C792.861 581.905 792.861 272.126 792.861 272.126ZM2297.97 261.848H2163.27C2157.11 261.848 2152.19 266.94 2152.19 273.192V621.502C2152.19 621.502 2117.94 646.699 2069.25 646.699C2020.71 646.699 2007.73 624.675 2007.73 576.98C2007.73 529.427 2007.73 273.145 2007.73 273.145C2007.73 266.893 2002.66 261.8 1996.6 261.8H1859.95C1853.7 261.8 1848.78 266.893 1848.78 273.145C1848.78 273.145 1848.78 458.666 1848.78 599.952C1848.78 741.236 1927.54 775.858 2035.77 775.858C2124.62 775.858 2196.38 726.743 2196.38 726.743C2196.38 726.743 2199.74 752.509 2201.44 755.587C2202.87 758.665 2206.89 761.745 2211.3 761.745H2297.88C2304.03 761.745 2309.05 756.676 2309.05 750.424L2309.43 273.146C2309.15 266.939 2304.13 261.848 2297.97 261.848ZM2666.93 245.839C2590.39 245.839 2538.34 279.987 2538.34 279.987V39.43C2538.34 33.178 2533.27 28.134 2527.21 28.134H2390.95C2384.84 28.134 2379.81 33.178 2379.81 39.43L2379.44 749.951C2379.44 756.251 2384.5 761.223 2390.66 761.223C2390.66 761.223 2485.43 761.223 2485.53 761.223C2489.74 761.223 2492.92 759.044 2495.33 755.255C2497.7 751.418 2501.06 722.48 2501.06 722.48C2501.06 722.48 2556.62 775.243 2662.1 775.243C2785.91 775.243 2856.86 712.439 2856.86 493.337C2856.86 274.518 2743.47 245.839 2666.93 245.839ZM2613.79 646.225C2567.09 644.804 2535.45 623.585 2535.45 623.585V398.515C2535.45 398.515 2566.76 379.309 2605.12 375.922C2653.67 371.612 2700.56 386.248 2700.56 502.052C2700.32 624.059 2679.2 648.166 2613.79 646.225ZM1185.12 643.667C1179.16 643.667 1163.91 646.035 1148.28 646.035C1098.36 646.035 1081.3 622.779 1081.3 592.704C1081.3 562.486 1081.3 392.854 1081.3 392.854H1183.23C1189.48 392.854 1194.41 387.81 1194.41 381.511V272.031C1194.5 265.732 1189.48 260.687 1183.23 260.687H1081.3L1081.16 126.152C1081.16 121.06 1078.46 118.527 1072.59 118.527H933.861C928.509 118.527 925.525 120.918 925.525 126.105V265.14C925.525 265.14 855.949 281.93 851.259 283.328C846.618 284.654 843.208 289.012 843.208 294.15V381.558C843.208 387.81 848.276 392.902 854.386 392.902H925.525C925.525 392.902 925.525 484.242 925.525 603.124C925.525 759.233 1035.08 774.579 1108.96 774.579C1142.69 774.579 1183.04 763.591 1189.81 761.223C1193.89 759.802 1196.21 755.586 1196.21 751.087L1196.25 654.986C1196.25 648.688 1191 643.572 1185.12 643.667Z" fill="white"/>
</svg>
