<svg width="30" height="26" viewBox="0 0 30 26" fill="none" xmlns="http://www.w3.org/2000/svg">
<path d="M29 26C28.8422 26.0004 28.6866 25.9635 28.5458 25.8922C28.405 25.821 28.2831 25.7174 28.19 25.59L26.07 22.67C23.1786 18.706 18.8424 16.0403 14 15.25V19C14 19.1857 13.9483 19.3678 13.8507 19.5257C13.753 19.6837 13.6133 19.8114 13.4472 19.8944C13.2811 19.9775 13.0952 20.0126 12.9102 19.996C12.7252 19.9793 12.5486 19.9114 12.4 19.8L0.4 10.8C0.275804 10.7069 0.175001 10.5861 0.105573 10.4472C0.0361451 10.3084 0 10.1552 0 10C0 9.84475 0.0361451 9.69164 0.105573 9.55279C0.175001 9.41393 0.275804 9.29315 0.4 9.2L12.4 0.2C12.5486 0.0885733 12.7252 0.0207191 12.9102 0.00404117C13.0952 -0.0126368 13.2811 0.0225203 13.4472 0.105573C13.6133 0.188626 13.753 0.316293 13.8507 0.474269C13.9483 0.632245 14 0.814289 14 1V5.24C18.4622 5.9535 22.5239 8.23401 25.4563 11.6722C28.3887 15.1104 29.9996 19.4812 30 24V25C29.9998 25.2109 29.933 25.4163 29.8091 25.5869C29.6852 25.7576 29.5105 25.8846 29.31 25.95C29.2095 25.9811 29.1052 25.998 29 26Z" fill="#FFBCA2"/>
</svg>
